<?xml version="1.0" encoding="UTF-8"?><svg id="Layer_1" xmlns="http://www.w3.org/2000/svg" xmlns:xlink="http://www.w3.org/1999/xlink" viewBox="0 0 485.01 477.24"><defs><style>.cls-1,.cls-2{fill:url(#linear-gradient);}.cls-3{clip-path:url(#clippath);}.cls-4{fill:none;}.cls-4,.cls-2,.cls-5,.cls-6{stroke-width:0px;}.cls-5{fill:url(#radial-gradient);}.cls-7{clip-path:url(#clippath-1);}.cls-6{fill:url(#linear-gradient-2);}</style><radialGradient id="radial-gradient" cx="-212.35" cy="1336.73" fx="-212.35" fy="1336.73" r="219.03" gradientTransform="translate(-552.55 -856.75) rotate(-45)" gradientUnits="userSpaceOnUse"><stop offset="0" stop-color="#020161"/><stop offset=".42" stop-color="#01023c"/><stop offset=".78" stop-color="#010223"/><stop offset="1" stop-color="#01031b"/></radialGradient><clipPath id="clippath"><circle class="cls-4" cx="242.51" cy="238.62" r="192.8"/></clipPath><linearGradient id="linear-gradient" x1="74.95" y1="239.43" x2="410.06" y2="239.43" gradientUnits="userSpaceOnUse"><stop offset="0" stop-color="#007cff"/><stop offset="1" stop-color="#09ffff"/></linearGradient><clipPath id="clippath-1"><path class="cls-2" d="M242.51-72.69v.47c0,8.15,6.66,14.81,14.81,14.81h0c8.15,0,14.81-6.66,14.81-14.81v-.47c0-8.15-6.66-14.81-14.81-14.81h0c-8.14,0-14.81,6.66-14.81,14.81ZM217.49-12.27c0,8.28,6.77,15.05,15.05,15.05h49.55c8.28,0,15.05-6.77,15.05-15.05s-6.77-15.05-15.05-15.05h-49.55c-8.28,0-15.05,6.77-15.05,15.05ZM242.51-193.07v.47c0,8.15,6.67,14.81,14.81,14.81h0c8.14,0,14.81-6.66,14.81-14.81v-.47c0-8.15-6.67-14.81-14.81-14.81h0c-8.14,0-14.81,6.66-14.81,14.81ZM242.51-132.88v.47c0,8.15,6.67,14.81,14.81,14.81h0c8.14,0,14.81-6.66,14.81-14.81v-.47c0-8.14-6.67-14.81-14.81-14.81h0c-8.14,0-14.81,6.67-14.81,14.81ZM116.88,310.85c0,8.28,6.09,15.05,13.54,15.05h88.04c.81,0,1.6.08,2.37.23h39.15c.77-.15,1.56-.23,2.37-.23h88.05c7.45,0,13.54-6.77,13.54-15.05s-6.1-15.05-13.54-15.05h-219.98c-7.45,0-13.54,6.77-13.54,15.05ZM217.49,491.89c0,8.28,6.77,15.05,15.05,15.05h49.55c8.28,0,15.05-6.77,15.05-15.05s-6.77-15.05-15.05-15.05h-49.55c-8.28,0-15.05,6.77-15.05,15.05ZM242.51,551.84v.47c0,8.14,6.67,14.81,14.81,14.81h0c8.14,0,14.81-6.67,14.81-14.81v-.47c0-8.15-6.67-14.81-14.81-14.81h0c-8.14,0-14.81,6.66-14.81,14.81ZM242.51,611.26v.47c0,8.15,6.67,14.81,14.81,14.81h0c8.14,0,14.81-6.66,14.81-14.81v-.47c0-8.15-6.67-14.81-14.81-14.81h0c-8.14,0-14.81,6.67-14.81,14.81ZM242.51,671.45v.47c0,8.15,6.67,14.81,14.81,14.81h0c8.14,0,14.81-6.66,14.81-14.81v-.47c0-8.15-6.67-14.81-14.81-14.81h0c-8.14,0-14.81,6.66-14.81,14.81ZM175.07,370.16c0,8.28,6.77,15.05,15.05,15.05h107.98c8.28,0,15.05-6.77,15.05-15.05s-6.77-15.05-15.05-15.05h-107.98c-8.28,0-15.05,6.77-15.05,15.05ZM97.04,172.56h-1.34c-5.76,0-10.64,3.63-12.3,9.15-5.48,18.28-8.44,37.65-8.44,57.72s2.95,39.44,8.44,57.72c1.66,5.52,6.54,9.15,12.3,9.15h1.34c4.2,0,7.81-1.82,10.31-5.19,2.5-3.37,3.2-7.35,1.98-11.37-3.58-11.83-5.93-24.19-6.9-36.93h294.26c7.36,0,13.37-6.02,13.37-13.37h0c0-7.35-6.02-13.37-13.37-13.37H102.43c.97-12.75,3.32-25.11,6.9-36.93,1.22-4.02.52-8-1.98-11.37-2.5-3.37-6.11-5.19-10.31-5.19ZM387.97,306.3h1.34c5.76,0,10.64-3.63,12.3-9.15,5.48-18.28,8.44-37.65,8.44-57.72s-2.95-39.44-8.44-57.72c-1.66-5.52-6.54-9.15-12.3-9.15h-1.34c-4.2,0-7.81,1.82-10.31,5.19-2.5,3.37-3.2,7.35-1.98,11.37,3.58,11.83,5.93,24.19,6.9,36.93H88.33c-7.36,0-13.37,6.02-13.37,13.37h0c0,7.35,6.02,13.37,13.37,13.37h294.26c-.97,12.75-3.32,25.11-6.9,36.93-1.22,4.02-.52,8,1.98,11.37,2.5,3.37,6.11,5.19,10.31,5.19ZM309.93,90.41v-1.34c0-5.76-3.63-10.64-9.15-12.3-18.28-5.48-37.65-8.44-57.72-8.44s-39.44,2.95-57.72,8.44c-5.52,1.66-9.15,6.54-9.15,12.3v1.34c0,4.2,1.82,7.81,5.19,10.31,3.37,2.5,7.35,3.2,11.37,1.98,11.83-3.58,24.19-5.93,36.93-6.9v97.47c0,7.36,6.02,13.37,13.37,13.37h0c7.35,0,13.37-6.02,13.37-13.37v-97.47c12.75.97,25.11,3.32,36.93,6.9,4.02,1.22,8,.52,11.37-1.98,3.37-2.5,5.19-6.11,5.19-10.31Z"/></clipPath><linearGradient id="linear-gradient-2" x1="10.17" y1="239.43" x2="435.52" y2="239.43" xlink:href="#linear-gradient"/></defs><circle class="cls-5" cx="242.51" cy="238.62" r="219.03"/><g class="cls-3"><path class="cls-1" d="M242.51-72.69v.47c0,8.15,6.66,14.81,14.81,14.81h0c8.15,0,14.81-6.66,14.81-14.81v-.47c0-8.15-6.66-14.81-14.81-14.81h0c-8.14,0-14.81,6.66-14.81,14.81ZM217.49-12.27c0,8.28,6.77,15.05,15.05,15.05h49.55c8.28,0,15.05-6.77,15.05-15.05s-6.77-15.05-15.05-15.05h-49.55c-8.28,0-15.05,6.77-15.05,15.05ZM242.51-193.07v.47c0,8.15,6.67,14.81,14.81,14.81h0c8.14,0,14.81-6.66,14.81-14.81v-.47c0-8.15-6.67-14.81-14.81-14.81h0c-8.14,0-14.81,6.66-14.81,14.81ZM242.51-132.88v.47c0,8.15,6.67,14.81,14.81,14.81h0c8.14,0,14.81-6.66,14.81-14.81v-.47c0-8.14-6.67-14.81-14.81-14.81h0c-8.14,0-14.81,6.67-14.81,14.81ZM116.88,310.85c0,8.28,6.09,15.05,13.54,15.05h88.04c.81,0,1.6.08,2.37.23h39.15c.77-.15,1.56-.23,2.37-.23h88.05c7.45,0,13.54-6.77,13.54-15.05s-6.1-15.05-13.54-15.05h-219.98c-7.45,0-13.54,6.77-13.54,15.05ZM217.49,491.89c0,8.28,6.77,15.05,15.05,15.05h49.55c8.28,0,15.05-6.77,15.05-15.05s-6.77-15.05-15.05-15.05h-49.55c-8.28,0-15.05,6.77-15.05,15.05ZM242.51,551.84v.47c0,8.14,6.67,14.81,14.81,14.81h0c8.14,0,14.81-6.67,14.81-14.81v-.47c0-8.15-6.67-14.81-14.81-14.81h0c-8.14,0-14.81,6.66-14.81,14.81ZM242.51,611.26v.47c0,8.15,6.67,14.81,14.81,14.81h0c8.14,0,14.81-6.66,14.81-14.81v-.47c0-8.15-6.67-14.81-14.81-14.81h0c-8.14,0-14.81,6.67-14.81,14.81ZM242.51,671.45v.47c0,8.15,6.67,14.81,14.81,14.81h0c8.14,0,14.81-6.66,14.81-14.81v-.47c0-8.15-6.67-14.81-14.81-14.81h0c-8.14,0-14.81,6.66-14.81,14.81ZM175.07,370.16c0,8.28,6.77,15.05,15.05,15.05h107.98c8.28,0,15.05-6.77,15.05-15.05s-6.77-15.05-15.05-15.05h-107.98c-8.28,0-15.05,6.77-15.05,15.05ZM97.04,172.56h-1.34c-5.76,0-10.64,3.63-12.3,9.15-5.48,18.28-8.44,37.65-8.44,57.72s2.95,39.44,8.44,57.72c1.66,5.52,6.54,9.15,12.3,9.15h1.34c4.2,0,7.81-1.82,10.31-5.19,2.5-3.37,3.2-7.35,1.98-11.37-3.58-11.83-5.93-24.19-6.9-36.93h294.26c7.36,0,13.37-6.02,13.37-13.37h0c0-7.35-6.02-13.37-13.37-13.37H102.43c.97-12.75,3.32-25.11,6.9-36.93,1.22-4.02.52-8-1.98-11.37-2.5-3.37-6.11-5.19-10.31-5.19ZM387.97,306.3h1.34c5.76,0,10.64-3.63,12.3-9.15,5.48-18.28,8.44-37.65,8.44-57.72s-2.95-39.44-8.44-57.72c-1.66-5.52-6.54-9.15-12.3-9.15h-1.34c-4.2,0-7.81,1.82-10.31,5.19-2.5,3.37-3.2,7.35-1.98,11.37,3.58,11.83,5.93,24.19,6.9,36.93H88.33c-7.36,0-13.37,6.02-13.37,13.37h0c0,7.35,6.02,13.37,13.37,13.37h294.26c-.97,12.75-3.32,25.11-6.9,36.93-1.22,4.02-.52,8,1.98,11.37,2.5,3.37,6.11,5.19,10.31,5.19ZM309.93,90.41v-1.34c0-5.76-3.63-10.64-9.15-12.3-18.28-5.48-37.65-8.44-57.72-8.44s-39.44,2.95-57.72,8.44c-5.52,1.66-9.15,6.54-9.15,12.3v1.34c0,4.2,1.82,7.81,5.19,10.31,3.37,2.5,7.35,3.2,11.37,1.98,11.83-3.58,24.19-5.93,36.93-6.9v97.47c0,7.36,6.02,13.37,13.37,13.37h0c7.35,0,13.37-6.02,13.37-13.37v-97.47c12.75.97,25.11,3.32,36.93,6.9,4.02,1.22,8,.52,11.37-1.98,3.37-2.5,5.19-6.11,5.19-10.31Z"/><g class="cls-7"><rect class="cls-6" x="10.17" y="-282.36" width="425.35" height="1043.57"/></g></g></svg>